# Blender3D v249 OBJ File: PoolTableCornerGF.blend1.blend
# www.blender3d.org
v -0.103007 0.309329 -0.102814
v 0.103043 0.309329 0.102791
v -0.102785 0.309329 0.103014
v -0.000093 0.309329 -0.102925
v 0.102932 0.309329 -0.000122
v -0.000741 0.233232 -0.077210
v 0.042155 0.233232 -0.064248
v 0.070620 0.233232 -0.029639
v 0.076527 0.233232 -0.000108
v -0.072000 0.309381 -0.029484
v -0.076344 0.309381 0.015116
v -0.055177 0.309381 0.054613
v -0.015634 0.309381 0.075694
v 0.028957 0.309381 0.071254
v 0.063566 0.309381 0.042788
v 0.076527 0.309381 -0.000108
v -0.043609 0.309381 -0.064155
v 0.031997 0.309208 0.102732
v 0.102733 0.309183 0.070855
v -0.021155 0.309390 0.102948
v -0.102781 0.309229 0.017881
v -0.102971 0.309263 -0.039209
v -0.063447 0.309257 -0.102628
v -0.000507 0.309257 -0.076928
v -0.072000 -0.308414 -0.029485
v -0.076344 -0.308414 0.015116
v -0.055177 -0.308414 0.054613
v -0.015634 -0.308414 0.075694
v 0.028957 -0.308414 0.071254
v 0.063566 -0.308414 0.042788
v 0.076527 -0.308414 -0.000108
v 0.070620 -0.308414 -0.029639
v 0.042155 -0.308414 -0.064248
v -0.000741 -0.308414 -0.077210
v -0.043609 -0.308414 -0.064155
v -0.000093 -0.309503 -0.102925
v 0.102932 -0.309503 -0.000122
v -0.102785 -0.309503 0.103014
v 0.103043 -0.309503 0.102791
v -0.103007 -0.309503 -0.102814
vt 0.626927 0.000028
vt 1.000000 0.000000
vt 0.623061 0.162106
vt 0.000065 1.000022
vt 0.255889 0.753876
vt 0.206854 0.999926
vt 0.011719 0.363274
vt 0.003927 0.003927
vt 0.007812 0.371086
vt 1.000000 1.000000
vt 0.000000 1.000000
vt 0.378898 0.003906
vt 0.363274 0.992188
vt 0.625008 0.992188
vt 0.625008 0.003906
vt 0.000000 0.000000
vt 0.238297 0.000000
vt 0.253922 0.992188
vt 0.255882 0.753801
vt 0.632312 0.856302
vt 0.633525 0.999991
vt 0.206979 0.999958
vt 0.273098 0.002885
vt 0.280298 1.002684
vt 0.367396 0.002885
vt 0.367760 0.998763
vt 0.000015 0.656752
vt 0.000042 1.000028
vt 0.179669 0.609375
vt 0.255890 0.753859
vt 0.000025 0.390637
vt 0.000008 0.656753
vt 0.179649 0.609363
vt 0.140611 0.406251
vt 0.440204 0.003365
vt 0.439551 0.994884
vt 0.499693 0.998784
vt 0.487399 0.007386
vt 0.209445 0.155288
vt 0.000027 0.390623
vt 0.140606 0.406234
vt 0.491282 0.003365
vt 0.507540 1.002696
vt 0.563763 0.994865
vt 0.556170 0.002999
vt 0.209451 0.155285
vt 0.361351 0.000043
vt 0.369632 0.138196
vt 0.564343 -0.000770
vt 0.571584 0.994834
vt 0.623868 0.998758
vt 0.628004 0.003250
vt 0.361345 0.000002
vt 0.369631 0.138188
vt 0.623050 0.162135
vt 0.626899 0.000090
vt 0.632079 -0.001158
vt 0.631664 0.998756
vt 0.707165 0.994795
vt 0.707038 0.003114
vt 0.623065 0.162126
vt 0.699263 0.343673
vt 0.999994 0.251895
vt 0.715861 0.002999
vt 0.707186 0.994856
vt 0.775165 0.991155
vt 0.786264 0.003479
vt 0.699320 0.343700
vt 1.000015 0.251924
vt 0.999937 0.624704
vt 0.812918 0.624700
vt 0.002295 0.004883
vt 0.093612 0.004941
vt 0.093598 0.879880
vt 0.002413 0.879936
vt 0.093703 0.004912
vt 0.184955 0.004879
vt 0.185059 0.879890
vt 0.093699 0.879894
vt 0.185213 0.004850
vt 0.275850 0.005269
vt 0.276371 0.879905
vt 0.185092 0.879901
vt 0.047853 0.009766
vt 0.067384 1.004883
vt 0.874022 0.004883
vt 0.878905 1.000000
vt 0.629882 0.000000
vt 0.620116 0.990234
vt 0.868164 0.995117
vt 0.868164 0.000000
vt 0.135743 -0.004883
vt 0.130860 1.009766
vt 0.126953 0.000000
vt 0.131836 0.995117
vt 0.384766 0.995117
vt 0.365235 0.004883
vt 0.375976 -0.004883
vt 0.628907 -0.004883
vt 0.609375 1.000000
vt 0.371093 1.000000
vn -0.001709 0.999983 0.005671
vn 0.001850 0.999990 -0.004194
vn -0.000000 -1.000000 0.000000
vn -0.957254 -0.000000 -0.289248
vn -0.957253 0.000000 -0.289252
vn 0.773694 -0.000000 0.633560
vn 0.773696 -0.000000 0.633557
vn -0.001155 0.999996 -0.002645
vn 0.003738 0.999989 0.002847
vn 0.284126 0.000000 0.958787
vn 0.291319 -0.000546 0.956626
vn -0.001557 0.999998 0.001041
vn -0.003041 0.999992 -0.002490
vn -0.004013 0.999992 0.000604
vn -0.005813 0.999983 -0.000566
vn 0.995290 -0.000000 0.096937
vn 0.995290 0.000000 0.096946
vn -0.002290 0.999997 -0.001173
vn -0.005448 0.999981 0.002920
vn 0.881408 -0.000000 -0.472355
vn 0.881412 0.000000 -0.472349
vn -0.000749 1.000000 0.000343
vn 0.000157 1.000000 -0.000295
vn 0.470442 -0.000000 -0.882431
vn 0.470445 0.000000 -0.882429
vn 0.003430 0.999994 0.000368
vn 0.000543 0.999985 0.005454
vn -0.099098 -0.000000 -0.995078
vn -0.099093 0.000000 -0.995078
vn 0.008406 0.999954 -0.004660
vn 0.000465 1.000000 0.000565
vn -0.635227 0.000000 -0.772325
vn 0.001980 0.999998 0.000598
vn 0.003584 0.999991 0.002070
vn 0.980574 -0.000000 -0.196151
vn 0.980574 -0.000000 -0.196150
vn 0.772324 -0.000000 -0.635228
vn 0.289253 -0.000000 -0.957253
vn 0.289252 -0.000000 -0.957253
vn 0.999873 -0.000387 0.015913
vn 0.999683 0.000000 0.025193
vn -0.000563 -0.000000 -1.000000
vn -0.000559 -0.000000 -1.000000
vn 0.999999 -0.000000 -0.001080
vn -0.001080 -0.000000 -0.999999
vn -0.999999 0.000000 0.001080
vn 0.001080 0.000000 0.999999
f 2/1/1 14/2/1 18/3/1
f 1/4/2 17/5/2 23/6/2
f 36/7/3 37/2/3 39/8/3
f 36/9/3 39/2/3 38/10/3
f 36/9/3 38/10/3 40/11/3
f 15/12/4 16/13/4 31/14/4
f 15/12/5 31/14/5 30/15/5
f 10/16/6 25/17/6 35/18/6
f 10/16/7 35/18/7 17/11/7
f 4/19/8 23/20/8 17/21/8
f 4/19/9 17/21/9 24/22/9
f 17/23/10 35/24/10 24/25/10
f 35/24/11 34/26/11 24/25/11
f 1/27/12 22/28/12 17/29/12
f 22/28/13 10/30/13 17/29/13
f 10/31/14 22/32/14 21/33/14
f 10/31/15 21/33/15 11/34/15
f 10/35/16 11/36/16 26/37/16
f 10/35/17 26/37/17 25/38/17
f 3/16/18 12/39/18 21/40/18
f 12/39/19 11/41/19 21/40/19
f 11/42/20 12/43/20 27/44/20
f 11/42/21 27/44/21 26/45/21
f 3/16/22 20/46/22 12/47/22
f 20/46/23 13/48/23 12/47/23
f 12/49/24 13/50/24 28/51/24
f 12/49/25 28/51/25 27/52/25
f 13/53/26 20/54/26 18/55/26
f 13/53/27 18/55/27 14/56/27
f 13/57/28 14/58/28 29/59/28
f 13/57/29 29/59/29 28/60/29
f 2/61/30 19/62/30 15/63/30
f 2/61/31 15/63/31 14/2/31
f 14/64/32 15/65/32 30/66/32
f 14/64/32 30/66/32 29/67/32
f 5/68/33 16/69/33 15/70/33
f 5/68/34 15/70/34 19/71/34
f 8/72/35 9/73/35 31/74/35
f 8/72/36 31/74/36 32/75/36
f 7/76/37 8/77/37 32/78/37
f 7/76/37 32/78/37 33/79/37
f 6/80/38 7/81/38 33/82/38
f 6/80/39 33/82/39 34/83/39
f 4/16/40 24/84/40 34/85/40
f 4/16/41 34/85/41 36/11/41
f 5/86/42 37/87/42 31/10/42
f 5/86/43 31/10/43 16/2/43
f 2/88/44 39/89/44 37/90/44
f 2/88/44 37/90/44 5/91/44
f 1/16/45 4/92/45 36/93/45
f 1/16/45 36/93/45 40/11/45
f 1/94/46 40/95/46 38/96/46
f 1/94/46 38/96/46 3/97/46
f 2/98/47 3/99/47 38/100/47
f 2/98/47 38/100/47 39/101/47
