# Blender3D v249 OBJ File: PoolTableFrontPanelGF.blend
# www.blender3d.org
v 0.303941 -0.039001 0.025131
v 0.306109 0.036652 0.023696
v -0.305936 0.036967 0.023684
v -0.306104 -0.039129 0.025143
v -0.306088 0.037558 -0.023740
v 0.306643 0.037562 -0.024016
vt 0.166586 0.998259
vt 0.167392 0.003815
vt 0.294254 0.001791
vt 0.296579 0.997758
vt 0.005155 0.997323
vt 0.004994 0.003002
vn -0.000515 -0.999922 -0.012453
vn -0.000003 -0.999818 -0.019061
vn -0.000017 -0.019170 -0.999816
vn 0.000009 -0.018965 -0.999820
f 2/1/1 3/2/1 5/3/1
f 2/1/2 5/3/2 6/4/2
f 1/5/3 4/6/3 3/2/3
f 1/5/4 3/2/4 2/1/4
