# Blender3D v249 OBJ File: 
# www.blender3d.org
v -0.103007 0.309329 -0.102814
v 0.103043 0.309329 0.102791
v -0.102785 0.309329 0.103014
v -0.000093 0.309329 -0.102925
v 0.102932 0.309329 -0.000122
v -0.000741 0.233232 -0.077210
v 0.042155 0.233232 -0.064248
v 0.070620 0.233232 -0.029639
v 0.076527 0.233232 -0.000108
v -0.072000 0.309381 -0.029484
v -0.076344 0.309381 0.015116
v -0.055177 0.309381 0.054613
v -0.015634 0.309381 0.075694
v 0.028957 0.309381 0.071254
v 0.063566 0.309381 0.042788
v 0.076527 0.309381 -0.000108
v -0.043609 0.309381 -0.064155
v 0.031997 0.309208 0.102732
v 0.102733 0.309183 0.070855
v -0.021155 0.309390 0.102948
v -0.102781 0.309229 0.017881
v -0.102971 0.309263 -0.039209
v -0.063447 0.309257 -0.102628
v -0.000507 0.309257 -0.076928
v -0.072000 -0.308414 -0.029485
v -0.076344 -0.308414 0.015116
v -0.055177 -0.308414 0.054613
v -0.015634 -0.308414 0.075694
v 0.028957 -0.308414 0.071254
v 0.063566 -0.308414 0.042788
v 0.076527 -0.308414 -0.000108
v 0.070620 -0.308414 -0.029639
v 0.042155 -0.308414 -0.064248
v -0.000741 -0.308414 -0.077210
v -0.043609 -0.308414 -0.064155
v -0.000093 -0.309503 -0.102925
v 0.102932 -0.309503 -0.000122
v -0.102785 -0.309503 0.103014
v 0.103043 -0.309503 0.102791
v -0.103007 -0.309503 -0.102814
vt 0.935465 0.065660
vt 0.622345 0.198949
vt 0.635193 0.065909
vt 0.064606 0.934637
vt 0.315649 0.771247
vt 0.231805 0.933851
vt 0.499559 0.058288
vt 0.941598 0.499374
vt 0.942074 0.940932
vt 0.058950 0.941889
vt 0.057997 0.058764
vt 0.222369 0.941712
vt 0.310890 0.941712
vt 0.310890 0.066584
vt 0.222369 0.066584
vt 0.721023 0.941711
vt 0.721021 0.066584
vt 0.633806 0.066584
vt 0.633806 0.941711
vt 0.499567 0.935106
vt 0.497817 0.825231
vt 0.545801 0.941536
vt 0.546249 0.066584
vt 0.064759 0.665814
vt 0.195656 0.624712
vt 0.065562 0.424527
vt 0.177296 0.436213
vt 0.808093 0.941712
vt 0.808093 0.066584
vt 0.065545 0.064717
vt 0.266757 0.269281
vt 0.895260 0.941712
vt 0.895260 0.066584
vt 0.410549 0.064996
vt 0.433883 0.180183
vt 0.982735 0.941712
vt 0.982736 0.066584
vt 0.046182 0.941712
vt 0.134078 0.941712
vt 0.134078 0.066584
vt 0.046182 0.066584
vt 0.934155 0.200635
vt 0.768618 0.319259
vt 0.934996 0.500615
vt 0.823396 0.500556
vt 0.369911 0.833844
vt 0.310890 0.833844
vt 0.369911 0.066584
vt 0.458265 0.833844
vt 0.458265 0.066584
vt 0.546249 0.833844
vt 0.000000 0.000000
vt 0.047853 0.009766
vt 0.067384 1.004883
vt 0.000000 1.000000
vt 0.874022 0.004883
vt 0.878905 1.000000
vt 1.000000 1.000000
vt 1.000000 0.000000
vt 0.629882 0.000000
vt 0.620116 0.990234
vt 0.868164 0.995117
vt 0.868164 0.000000
vt 0.135743 -0.004883
vt 0.130860 1.009766
vt 0.126953 0.000000
vt 0.131836 0.995117
vt 0.384766 0.995117
vt 0.365235 0.004883
vt 0.375976 -0.004883
vt 0.628907 -0.004883
vt 0.609375 1.000000
vt 0.371093 1.000000
vn -0.001708 0.999983 0.005661
vn 0.001840 0.999990 -0.004172
vn 0.000000 -1.000000 0.000000
vn -0.957258 -0.000000 -0.289235
vn 0.773688 -0.000001 0.633567
vn 0.773697 0.000000 0.633556
vn -0.001149 0.999996 -0.002631
vn 0.003715 0.999989 0.002829
vn 0.284130 0.000000 0.958786
vn 0.291329 -0.000547 0.956623
vn -0.001552 0.999998 0.001039
vn -0.003031 0.999992 -0.002482
vn -0.004002 0.999992 0.000609
vn -0.005809 0.999983 -0.000566
vn 0.995290 0.000000 0.096940
vn 0.995290 -0.000000 0.096938
vn -0.002287 0.999997 -0.001175
vn -0.005445 0.999981 0.002918
vn 0.881407 -0.000000 -0.472358
vn -0.000747 1.000000 0.000340
vn 0.000159 1.000000 -0.000298
vn 0.470439 -0.000000 -0.882433
vn 0.003426 0.999994 0.000364
vn 0.000542 0.999985 0.005444
vn -0.099082 -0.000000 -0.995079
vn 0.008389 0.999954 -0.004653
vn 0.000463 1.000000 0.000562
vn -0.635235 -0.000000 -0.772319
vn 0.001970 0.999998 0.000595
vn 0.003574 0.999991 0.002067
vn 0.980576 -0.000000 -0.196142
vn 0.772330 -0.000000 -0.635221
vn 0.289255 -0.000000 -0.957252
vn 0.999873 -0.000386 0.015922
vn 0.999683 0.000000 0.025191
vn -0.000530 -0.000000 -1.000000
vn 0.999999 -0.000000 -0.001079
vn -0.001079 -0.000000 -0.999999
vn -0.999999 0.000000 0.001079
vn 0.001083 0.000000 0.999999
usemtl (null)
s off
f 2/1/1 14/2/1 18/3/1
f 1/4/2 17/5/2 23/6/2
f 36/7/3 37/8/3 39/9/3
f 36/7/3 39/9/3 38/10/3
f 36/7/3 38/10/3 40/11/3
f 15/12/4 16/13/4 31/14/4
f 15/12/4 31/14/4 30/15/4
f 10/16/5 25/17/5 35/18/5
f 10/16/6 35/18/6 17/19/6
f 4/20/7 23/6/7 17/5/7
f 4/20/8 17/5/8 24/21/8
f 17/19/9 35/18/9 24/22/9
f 35/18/10 34/23/10 24/22/10
f 1/4/11 22/24/11 17/5/11
f 22/24/12 10/25/12 17/5/12
f 10/25/13 22/24/13 21/26/13
f 10/25/14 21/26/14 11/27/14
f 10/16/15 11/28/15 26/29/15
f 10/16/16 26/29/16 25/17/16
f 3/30/17 12/31/17 21/26/17
f 12/31/18 11/27/18 21/26/18
f 11/28/19 12/32/19 27/33/19
f 11/28/19 27/33/19 26/29/19
f 3/30/20 20/34/20 12/31/20
f 20/34/21 13/35/21 12/31/21
f 12/32/22 13/36/22 28/37/22
f 12/32/22 28/37/22 27/33/22
f 13/35/23 20/34/23 18/3/23
f 13/35/24 18/3/24 14/2/24
f 13/38/25 14/39/25 29/40/25
f 13/38/25 29/40/25 28/41/25
f 2/1/26 19/42/26 15/43/26
f 2/1/27 15/43/27 14/2/27
f 14/39/28 15/12/28 30/15/28
f 14/39/28 30/15/28 29/40/28
f 5/44/29 16/45/29 15/43/29
f 5/44/30 15/43/30 19/42/30
f 8/46/31 9/47/31 31/14/31
f 8/46/31 31/14/31 32/48/31
f 7/49/32 8/46/32 32/48/32
f 7/49/32 32/48/32 33/50/32
f 6/51/33 7/49/33 33/50/33
f 6/51/33 33/50/33 34/23/33
f 4/52/34 24/53/34 34/54/34
f 4/52/35 34/54/35 36/55/35
f 5/56/36 37/57/36 31/58/36
f 5/56/36 31/58/36 16/59/36
f 2/60/37 39/61/37 37/62/37
f 2/60/37 37/62/37 5/63/37
f 1/52/38 4/64/38 36/65/38
f 1/52/38 36/65/38 40/55/38
f 1/66/39 40/67/39 38/68/39
f 1/66/39 38/68/39 3/69/39
f 2/70/40 3/71/40 38/72/40
f 2/70/40 38/72/40 39/73/40
