# Blender3D v249 OBJ File: roomedgenew.blend
# www.blender3d.org
v 3.000005 -2.998847 3.260447
v -2.999994 -2.998847 3.260447
v -2.999993 -2.998847 -2.739553
v 3.000007 -2.998847 -2.739552
v 3.000004 -2.848847 3.260449
v -2.999996 -2.848847 3.260445
v -2.999993 -2.848847 -2.739554
v 3.000006 -2.848847 -2.739553
v 2.999985 3.001157 -2.739553
v 2.999985 3.001155 3.260448
v 3.149984 3.001158 -2.739552
v 3.149984 -2.998843 -2.739553
v 3.149984 -2.998844 3.260447
v 3.149984 3.001156 3.260447
v -2.999985 3.001156 3.260447
v -2.999984 3.001157 -2.739552
v -3.149984 3.001155 3.260448
v -3.149984 -2.998847 3.260445
v -3.149984 -2.998844 -2.739554
v -3.149984 3.001156 -2.739553
v -2.999722 3.000688 3.260447
v 3.000278 3.000689 3.260447
v 3.000278 3.000688 -2.739553
v -2.999723 3.000688 -2.739552
v -2.999721 2.850688 3.260448
v 3.000280 2.850689 3.260445
v 3.000277 2.850689 -2.739554
v -2.999722 2.850688 -2.739553
v -2.999723 2.997916 3.111039
v 3.000277 2.997918 3.111039
v 3.000280 -3.002082 3.111040
v -2.999721 -3.002085 3.111039
v -2.999724 2.997916 3.261038
v 3.000278 2.997916 3.261039
v 3.000278 -3.002084 3.261039
v -2.999722 -3.002084 3.261039
v -2.999722 -2.997919 -2.589024
v 3.000278 -2.997919 -2.589024
v 3.000278 3.002081 -2.589024
v -2.999724 3.002080 -2.589025
v -2.999721 -2.997920 -2.739024
v 3.000280 -2.997916 -2.739024
v 3.000277 3.002083 -2.739024
v -2.999722 3.002081 -2.739024
v 3.000278 0.002081 -2.589024
v 0.000278 -2.997919 -2.589024
v -2.999723 0.002081 -2.589024
v 0.000277 3.002081 -2.589024
v 0.000280 -2.997918 -2.739024
v 3.000279 0.002083 -2.739024
v 0.000277 3.002082 -2.739024
v -2.999722 0.002081 -2.739024
v 3.000278 -1.497919 -2.589024
v 3.000278 1.502081 -2.589024
v -1.499722 -2.997919 -2.589024
v 1.500278 -2.997919 -2.589024
v -2.999722 -1.497919 -2.589024
v -2.999723 1.502080 -2.589025
v 1.500278 3.002081 -2.589024
v -1.499723 3.002080 -2.589025
v -1.499721 -2.997919 -2.739024
v 1.500280 -2.997918 -2.739024
v 3.000279 -1.497917 -2.739024
v 3.000278 1.502082 -2.739024
v 1.500277 3.002083 -2.739024
v -1.499722 3.002081 -2.739024
v -2.999721 -1.497920 -2.739024
v -2.999722 1.502081 -2.739024
v 1.500278 0.002081 -2.589024
v 0.000278 -1.497919 -2.589024
v -1.499723 0.002081 -2.589024
v 0.000277 1.502081 -2.589024
v 0.000278 1.502082 -2.739024
v -1.499721 0.002081 -2.739024
v 0.000279 -1.497918 -2.739024
v 1.500279 0.002082 -2.739024
v 1.500278 -1.497919 -2.589024
v -1.499722 -1.497919 -2.589024
v 1.500278 1.502081 -2.589024
v -1.499723 1.502081 -2.589024
v -1.499722 1.502081 -2.739024
v -1.499721 -1.497919 -2.739024
v 1.500278 1.502082 -2.739024
v 1.500279 -1.497918 -2.739024
v -1.499665 1.352090 -2.590741
v -1.499665 1.352091 -2.740741
v 1.500335 1.352090 -2.590741
v 1.500335 1.352092 -2.740740
v 0.000335 1.352092 -2.740741
v 0.000335 1.352090 -2.590741
v 1.350278 1.502081 -2.589025
v 1.350278 1.502082 -2.739025
v 1.350278 -1.497919 -2.589025
v 1.350279 -1.497918 -2.739025
v 1.350279 0.002082 -2.739025
v 1.350278 0.002081 -2.589025
v 1.500221 -1.347922 -2.588109
v 1.500222 -1.347921 -2.738108
v -1.499779 -1.347922 -2.588109
v -1.499778 -1.347922 -2.738109
v 0.000222 -1.347921 -2.738109
v 0.000221 -1.347922 -2.588109
v 0.150174 -1.344173 -2.588085
v 1.650174 -1.344173 -2.588085
v -1.349826 -1.344173 -2.588085
v 0.150175 -1.344172 -2.738085
v -1.349825 -1.344173 -2.738085
v 1.650175 -1.344172 -2.738085
v -1.349770 1.505829 -2.589001
v -1.349769 1.505830 -2.739000
v -1.349769 -1.494170 -2.589000
v -1.349768 -1.494170 -2.739000
v -1.349768 0.005830 -2.739000
v -1.349769 0.005829 -2.589000
vt 0.748234 0.249423
vt 0.691207 0.249423
vt 0.748234 0.457978
vt 0.691207 0.457978
vt 0.748234 0.040868
vt 0.691207 0.040868
vt 0.619012 0.265264
vt 0.619012 0.466305
vt 0.571173 0.265264
vt 0.571173 0.466305
vt 0.571173 0.064223
vt 0.619012 0.064223
vt 0.990076 0.253947
vt 0.990076 0.014370
vt 0.966126 0.014969
vt 0.966126 0.254546
vt 0.990076 0.493524
vt 0.966126 0.494123
vt 0.559642 0.252126
vt 0.559642 0.004816
vt 0.525683 0.004816
vt 0.525683 0.252126
vt 0.525683 0.499436
vt 0.559642 0.499436
vt 0.559747 0.247443
vt 0.559747 0.491191
vt 0.519329 0.247443
vt 0.519329 0.491191
vt 0.559747 0.003695
vt 0.519329 0.003696
vt 0.510931 0.038327
vt 0.750508 0.038327
vt 0.726558 0.038926
vt 0.486981 0.038926
vt 0.750499 0.014370
vt 0.510922 0.014370
vt 0.990085 0.038328
vt 0.990085 0.038327
vt 0.748224 0.248902
vt 0.691198 0.248902
vt 0.691198 0.040347
vt 0.748224 0.040347
vt 0.748224 0.457457
vt 0.691198 0.457457
vt 0.510922 0.253947
vt 0.534880 0.253947
vt 0.534880 0.014370
vt 0.510922 0.493524
vt 0.534880 0.493524
vt 0.525683 0.004817
vt 0.618165 0.245181
vt 0.570326 0.245181
vt 0.618165 0.446222
vt 0.570326 0.446222
vt 0.618165 0.044140
vt 0.570326 0.044140
vt 0.750499 0.493524
vt 0.750490 0.469568
vt 0.510913 0.469568
vt 0.990067 0.469568
vt 0.514722 0.250568
vt 0.545603 0.250568
vt 0.514722 0.008397
vt 0.545603 0.008397
vt 0.514722 0.492739
vt 0.545603 0.492739
vt 0.006250 -0.006250
vt 1.000000 0.000000
vt 0.000000 1.000000
vt 1.000000 1.000000
vt 0.003125 0.003125
vt 0.003125 -0.003125
vt 0.000000 0.000000
vt 0.628110 0.503232
vt 0.628110 0.624554
vt 0.506788 0.503232
vt 0.506788 0.624554
vt 0.628110 0.745876
vt 0.506788 0.745876
vt 0.749432 0.503232
vt 0.749432 0.624554
vt 0.628110 0.867198
vt 0.506788 0.867198
vt 0.628110 0.988519
vt 0.506788 0.988519
vt 0.749432 0.867198
vt 0.749432 0.988519
vt 0.870753 0.503232
vt 0.870753 0.624554
vt 0.992075 0.503232
vt 0.992075 0.624554
vt 0.992075 0.745876
vt 0.870753 0.745876
vt 0.870753 0.867198
vt 0.870754 0.988519
vt 0.992075 0.867198
vt 0.992075 0.988519
vt 0.870754 0.867197
vt 0.749432 0.867197
vt 0.870754 0.745876
vt 0.628110 0.867197
vt 0.506788 0.867197
vt 0.507542 0.502564
vt 0.999843 0.502564
vt 0.507542 0.994864
vt 0.999843 0.994864
vt 0.507542 0.994865
vt 0.999843 0.994865
vt 0.000000 -0.006250
vt 0.999999 0.499374
vt 0.999999 0.999375
vt 0.499999 0.999374
vt 0.499999 0.499375
vt 0.499999 0.496875
vt 0.999999 0.496875
vt 0.999999 0.996875
vt 0.499999 0.996875
vt 1.003893 0.999587
vt 0.502593 0.999587
vt 0.502593 0.498287
vt 1.003893 0.498287
vt 0.999083 0.994777
vt 0.999083 0.503097
vt 0.507403 0.503097
vt 0.507403 0.994777
vt 0.505355 0.504175
vt 0.994880 0.504175
vt 0.994880 0.993699
vt 0.505355 0.993699
vt 0.003125 -0.012500
vt 0.500000 0.999954
vt 0.000008 0.999977
vt 0.500000 0.499999
vt 0.000000 0.500000
vt 0.500000 1.000000
vt 0.500000 0.500000
vn 1.000000 0.000000 0.000006
vn 1.000000 0.000000 0.000009
vn -0.000000 1.000000 0.000004
vn -0.000000 1.000000 0.000009
vn 0.000000 1.000000 -0.000001
vn -0.000159 -0.000000 1.000000
vn -0.000157 0.000000 1.000000
vn 0.000159 0.000000 -1.000000
vn 0.024992 -0.999688 0.000001
vn 0.024993 -0.999688 0.000002
vn -0.024990 0.999688 0.000003
vn 0.024992 -0.999688 -0.000008
vn 0.024993 -0.999688 -0.000008
vn -0.024993 0.999688 -0.000002
vn -0.024992 0.999688 -0.000001
vn 0.000000 0.006353 -0.999980
vn -0.000000 0.006360 -0.999980
vn 0.000000 -0.006360 0.999980
vn -0.000000 -0.006353 0.999980
vn -0.000000 -0.006104 0.999981
vn -0.000000 0.006104 -0.999981
vn -1.000000 -0.000381 -0.000008
vn 1.000000 0.000381 0.000010
vn -1.000000 -0.000000 -0.000006
vn -1.000000 -0.000000 -0.000010
vn -1.000000 -0.000000 -0.000003
vn -0.000005 0.000000 1.000000
vn -0.000006 -0.000000 1.000000
vn 0.000006 0.000000 -1.000000
vn 0.000005 0.000000 -1.000000
vn 0.000000 -1.000000 -0.000009
vn -0.000000 1.000000 0.000011
vn 0.000000 -1.000000 -0.000008
vn 0.000000 -1.000000 -0.000011
vn 0.000000 -1.000000 -0.000004
vn 0.000000 -0.011442 0.999934
vn 0.000000 -0.011444 0.999934
vn -0.000000 -0.011442 0.999935
vn 0.000000 0.011444 -0.999934
vn -0.000000 0.011443 -0.999934
vn 1.000000 0.000381 0.000002
vn -1.000000 -0.000381 -0.000005
vn -1.000000 -0.000000 -0.000008
vn -0.000000 1.000000 0.000008
vn -0.000000 1.000000 0.000006
vn 0.000001 -1.000000 -0.000016
vn 0.000000 -1.000000 -0.000003
vn 0.000001 -1.000000 -0.000003
vn -0.000000 -1.000000 0.000003
vn 0.000000 -1.000000 0.000008
vn 0.000000 0.000000 -1.000000
vn -0.000000 -0.000000 1.000000
vn -1.000000 -0.000008 0.000000
vn -0.000000 0.000005 -1.000000
vn -0.000000 0.000008 -1.000000
vn 0.000001 0.000010 1.000000
vn -0.000000 -0.000014 1.000000
vn 0.000000 -1.000000 0.000000
vn -0.000000 1.000000 -0.000000
vn -0.000008 1.000000 0.000000
vn -0.000019 -1.000000 -0.000000
vn 0.000008 0.000000 1.000000
vn -0.000014 -0.000001 1.000000
vn -1.000000 -0.000000 0.000000
vn 1.000000 -0.000002 0.000000
vn 1.000000 0.000000 0.000000
vn -1.000000 -0.000003 -0.000000
vn -1.000000 -0.000004 -0.000000
vn 0.000010 0.000000 1.000000
vn 0.000019 -1.000000 0.000000
vn 0.000024 -1.000000 -0.000000
vn -0.000010 -0.000000 -1.000000
vn -0.000006 1.000000 0.000000
vn 1.000000 0.000010 0.000000
vn 1.000000 0.000008 0.000000
vn 0.000000 -0.000005 -1.000000
vn 0.000000 -0.000006 -1.000000
vn -1.000000 -0.000013 -0.000000
vn -1.000000 0.000005 -0.000001
vn -0.000000 -0.000010 1.000000
vn -0.000001 0.000014 1.000000
usemtl None_scenetex.tga
s off
f 114/1/1 113/2/1 109/3/1
f 113/2/1 110/4/1 109/3/1
f 114/1/2 111/5/2 112/6/2
f 114/1/1 112/6/1 113/2/1
f 103/7/3 104/8/3 106/9/3
f 104/8/4 108/10/4 106/9/4
f 103/7/3 106/9/3 107/11/3
f 103/7/5 107/11/5 105/12/5
f 71/13/6 78/14/6 111/15/6
f 71/13/6 111/15/6 114/16/6
f 80/17/6 71/13/6 114/16/6
f 80/17/7 114/16/7 109/18/7
f 74/13/8 81/17/8 113/16/8
f 81/17/8 110/18/8 113/16/8
f 82/14/8 74/13/8 112/15/8
f 74/13/8 113/16/8 112/15/8
f 78/19/9 82/20/9 112/21/9
f 78/19/10 112/21/10 111/22/10
f 81/19/11 80/22/11 109/23/11
f 81/19/11 109/23/11 110/24/11
f 97/25/12 98/26/12 104/27/12
f 98/26/13 108/28/13 104/27/13
f 100/25/14 99/27/14 107/29/14
f 99/27/15 105/30/15 107/29/15
f 98/31/16 101/32/16 106/33/16
f 98/31/16 106/33/16 108/34/16
f 101/25/17 100/27/17 107/30/17
f 101/25/17 107/30/17 106/29/17
f 99/25/18 102/27/18 105/29/18
f 102/27/18 103/30/18 105/29/18
f 102/25/19 97/26/19 103/27/19
f 97/26/19 104/28/19 103/27/19
f 70/35/20 77/36/20 97/31/20
f 70/35/20 97/31/20 102/32/20
f 78/14/20 70/35/20 102/32/20
f 78/14/20 102/32/20 99/37/20
f 75/35/21 82/14/21 100/38/21
f 75/35/21 100/38/21 101/32/21
f 84/36/21 75/35/21 101/32/21
f 84/36/21 101/32/21 98/31/21
f 82/25/22 78/27/22 100/29/22
f 78/27/22 99/30/22 100/29/22
f 77/25/23 84/26/23 97/27/23
f 84/26/23 98/28/23 97/27/23
f 96/39/24 95/40/24 94/41/24
f 96/39/25 94/41/25 93/42/25
f 96/39/24 91/43/24 95/40/24
f 91/43/26 92/44/26 95/40/26
f 77/36/27 69/45/27 96/46/27
f 77/36/27 96/46/27 93/47/27
f 69/45/28 79/48/28 91/49/28
f 69/45/27 91/49/27 96/46/27
f 83/48/29 76/45/29 95/46/29
f 83/48/29 95/46/29 92/49/29
f 76/45/30 84/36/30 94/47/30
f 76/45/29 94/47/29 95/46/29
f 84/19/31 77/22/31 94/20/31
f 77/22/31 93/50/31 94/20/31
f 79/19/32 83/24/32 91/22/32
f 83/24/32 92/23/32 91/22/32
f 90/51/33 89/52/33 87/53/33
f 89/52/34 88/54/34 87/53/34
f 90/51/35 85/55/35 86/56/35
f 90/51/33 86/56/33 89/52/33
f 79/48/36 72/57/36 90/58/36
f 79/48/36 90/58/36 87/59/36
f 72/57/37 80/17/37 85/60/37
f 72/57/38 85/60/38 90/58/38
f 81/17/39 73/57/39 89/58/39
f 81/17/40 89/58/40 86/60/40
f 73/57/39 83/48/39 88/59/39
f 73/57/39 88/59/39 89/58/39
f 83/61/41 79/62/41 88/63/41
f 79/62/41 87/64/41 88/63/41
f 80/61/42 81/65/42 85/62/42
f 81/65/42 86/66/42 85/62/42
f 58/67/43 40/68/43 68/69/43
f 40/68/43 44/70/43 68/69/43
f 47/71/43 58/68/43 52/69/43
f 58/68/43 68/70/43 52/69/43
f 57/72/43 47/68/43 52/70/43
f 57/72/43 52/70/43 67/69/43
f 37/72/43 57/68/43 67/70/43
f 37/72/24 67/70/24 41/69/24
f 66/73/44 44/68/44 60/69/44
f 44/68/44 40/70/44 60/69/44
f 51/73/45 66/68/45 48/69/45
f 66/68/44 60/70/44 48/69/44
f 65/73/45 51/68/45 48/70/45
f 65/73/44 48/70/44 59/69/44
f 43/73/44 65/68/44 59/70/44
f 43/73/44 59/70/44 39/69/44
f 62/73/46 42/68/46 38/70/46
f 62/73/33 38/70/33 56/69/33
f 49/73/33 62/68/33 56/70/33
f 49/73/47 56/70/47 46/69/47
f 61/73/48 49/68/48 46/70/48
f 61/73/49 46/70/49 55/69/49
f 41/73/49 61/68/49 55/70/49
f 41/73/50 55/70/50 37/69/50
f 62/74/51 84/75/51 42/76/51
f 84/75/51 63/77/51 42/76/51
f 84/75/51 76/78/51 63/77/51
f 76/78/51 50/79/51 63/77/51
f 49/80/51 75/81/51 62/74/51
f 75/81/51 84/75/51 62/74/51
f 76/78/51 83/82/51 50/79/51
f 83/82/51 64/83/51 50/79/51
f 83/82/51 65/84/51 43/85/51
f 83/82/51 43/85/51 64/83/51
f 73/86/51 51/87/51 83/82/51
f 51/87/51 65/84/51 83/82/51
f 61/88/51 82/89/51 49/80/51
f 82/89/51 75/81/51 49/80/51
f 41/90/51 67/91/51 61/88/51
f 67/91/51 82/89/51 61/88/51
f 67/91/51 52/92/51 82/89/51
f 52/92/51 74/93/51 82/89/51
f 81/94/51 66/95/51 73/86/51
f 66/95/51 51/87/51 73/86/51
f 52/92/51 68/96/51 74/93/51
f 68/96/51 81/94/51 74/93/51
f 68/96/51 44/97/51 81/94/51
f 44/97/51 66/95/51 81/94/51
f 58/96/52 80/98/52 40/97/52
f 80/98/52 60/95/52 40/97/52
f 80/98/52 72/99/52 60/95/52
f 72/99/52 48/87/52 60/95/52
f 47/92/52 71/100/52 58/96/52
f 71/100/52 80/98/52 58/96/52
f 72/99/52 79/101/52 48/87/52
f 79/101/52 59/84/52 48/87/52
f 79/101/52 54/102/52 59/84/52
f 54/102/52 39/85/52 59/84/52
f 69/78/52 45/79/52 79/101/52
f 45/79/52 54/102/52 79/101/52
f 57/91/52 78/89/52 47/92/52
f 78/89/52 71/100/52 47/92/52
f 37/90/52 55/88/52 57/91/52
f 55/88/52 78/89/52 57/91/52
f 55/88/52 46/80/52 70/81/52
f 55/88/52 70/81/52 78/89/52
f 77/75/52 53/77/52 69/78/52
f 53/77/52 45/79/52 69/78/52
f 46/80/52 56/74/52 77/75/52
f 46/80/52 77/75/52 70/81/52
f 56/74/52 38/76/52 77/75/52
f 38/76/52 53/77/52 77/75/52
f 36/103/52 35/104/52 33/105/52
f 35/104/52 34/106/52 33/105/52
f 32/103/51 29/107/51 31/104/51
f 29/107/51 30/108/51 31/104/51
f 36/73/50 32/68/50 35/69/50
f 32/68/46 31/70/46 35/69/46
f 34/73/44 30/68/44 29/70/44
f 34/73/45 29/70/45 33/69/45
f 32/109/24 36/68/24 33/70/24
f 32/109/43 33/70/43 29/69/43
f 25/72/53 21/68/53 24/70/53
f 25/72/53 24/70/53 28/69/53
f 23/73/54 27/68/54 24/69/54
f 27/68/55 28/70/55 24/69/55
f 21/73/56 25/68/56 26/70/56
f 21/73/57 26/70/57 22/69/57
f 25/110/58 28/111/58 27/112/58
f 25/110/58 27/112/58 26/113/58
f 21/114/59 22/115/59 23/116/59
f 21/114/59 23/116/59 24/117/59
f 17/73/60 15/68/60 16/70/60
f 17/73/60 16/70/60 20/69/60
f 3/73/30 19/68/30 16/69/30
f 19/68/29 20/70/29 16/69/29
f 2/73/58 18/68/58 3/69/58
f 18/68/61 19/70/61 3/69/61
f 15/73/62 17/68/62 2/69/62
f 17/68/63 18/70/63 2/69/63
f 17/118/64 20/119/64 19/120/64
f 17/118/64 19/120/64 18/121/64
f 15/118/65 2/121/65 3/120/65
f 15/118/65 3/120/65 16/119/65
f 14/122/66 13/123/66 12/124/66
f 14/122/66 12/124/66 11/125/66
f 4/126/67 1/127/67 10/128/67
f 4/126/68 10/128/68 9/129/68
f 1/70/52 13/69/52 10/68/52
f 13/69/69 14/73/69 10/68/69
f 13/73/70 1/68/70 4/70/70
f 13/73/71 4/70/71 12/69/71
f 12/73/72 4/68/72 9/70/72
f 12/73/29 9/70/29 11/69/29
f 10/73/60 14/68/60 11/70/60
f 10/73/73 11/70/73 9/69/73
f 5/130/74 1/68/74 4/70/74
f 5/130/75 4/70/75 8/69/75
f 3/73/76 7/68/76 8/70/76
f 3/73/77 8/70/77 4/69/77
f 2/73/78 6/68/78 3/69/78
f 6/68/79 7/70/79 3/69/79
f 1/73/80 5/68/80 2/69/80
f 5/68/81 6/70/81 2/69/81
f 5/131/59 8/132/59 6/133/59
f 8/132/59 7/134/59 6/133/59
f 1/135/58 2/69/58 3/134/58
f 1/135/58 3/134/58 4/136/58
